HIERARCHY
ROOT mixamorig:Hips
{
	OFFSET 0.000000 201.639420 0.000000
	CHANNELS 6 Xposition Yposition Zposition Xrotation Yrotation Zrotation
	JOINT mixamorig:Spine
	{
		OFFSET 0.006200 19.524994 -2.481800
		CHANNELS 3 Xrotation Yrotation Zrotation
		JOINT mixamorig:Spine1
		{
			OFFSET -0.000900 22.835007 -2.825400
			CHANNELS 3 Xrotation Yrotation Zrotation
			JOINT mixamorig:Spine2
			{
				OFFSET -0.020600 26.552490 -3.193300
				CHANNELS 3 Xrotation Yrotation Zrotation
				JOINT mixamorig:Neck
				{
					OFFSET -0.060000 30.701813 1.352200
					CHANNELS 3 Xrotation Yrotation Zrotation
					JOINT mixamorig:Head
					{
						OFFSET -0.087200 22.547607 3.670900
						CHANNELS 3 Xrotation Yrotation Zrotation
						JOINT mixamorig:HeadTop_End
						{
							OFFSET -0.830600 40.355194 7.893500
							CHANNELS 3 Xrotation Yrotation Zrotation
							End Site
							{
								OFFSET 0.000000 30.592346 0.000000
							}
						}
						JOINT mixamorig:RightEye
						{
							OFFSET -6.302100 18.118591 16.197100
							CHANNELS 3 Xrotation Yrotation Zrotation
							End Site
							{
								OFFSET 0.000000 30.592346 0.000000
							}
						}
						JOINT mixamorig:LeftEye
						{
							OFFSET 6.741500 18.382690 16.401899
							CHANNELS 3 Xrotation Yrotation Zrotation
							End Site
							{
								OFFSET 0.000000 30.592346 0.000000
							}
						}
					}
				}
				JOINT mixamorig:LeftShoulder
				{
					OFFSET 11.924900 18.230499 1.425400
					CHANNELS 3 Xrotation Yrotation Zrotation
					JOINT mixamorig:LeftArm
					{
						OFFSET 25.435989 -0.697632 -5.229300
						CHANNELS 3 Xrotation Yrotation Zrotation
						JOINT mixamorig:LeftForeArm
						{
							OFFSET 54.684776 0.000000 0.000000
							CHANNELS 3 Xrotation Yrotation Zrotation
							JOINT mixamorig:LeftHand
							{
								OFFSET 55.098175 0.000000 0.000000
								CHANNELS 3 Xrotation Yrotation Zrotation
								JOINT mixamorig:LeftHandMiddle1
								{
									OFFSET 23.369751 0.000000 0.000000
									CHANNELS 3 Xrotation Yrotation Zrotation
									JOINT mixamorig:LeftHandMiddle2
									{
										OFFSET 6.378677 0.000000 0.000000
										CHANNELS 3 Xrotation Yrotation Zrotation
										JOINT mixamorig:LeftHandMiddle3
										{
											OFFSET 6.148331 0.000000 0.000000
											CHANNELS 3 Xrotation Yrotation Zrotation
											JOINT mixamorig:LeftHandMiddle4
											{
												OFFSET 6.582504 0.000000 0.000000
												CHANNELS 3 Xrotation Yrotation Zrotation
												End Site
												{
													OFFSET -1.168900 6.395691 1.028606
												}
											}
										}
									}
								}
								JOINT mixamorig:LeftHandThumb1
								{
									OFFSET 7.235672 -3.848206 5.434273
									CHANNELS 3 Xrotation Yrotation Zrotation
									JOINT mixamorig:LeftHandThumb2
									{
										OFFSET 6.568451 -3.792297 3.792300
										CHANNELS 3 Xrotation Yrotation Zrotation
										JOINT mixamorig:LeftHandThumb3
										{
											OFFSET 6.063080 -3.500519 3.500518
											CHANNELS 3 Xrotation Yrotation Zrotation
											JOINT mixamorig:LeftHandThumb4
											{
												OFFSET 4.793182 -2.767334 2.767349
												CHANNELS 3 Xrotation Yrotation Zrotation
												End Site
												{
													OFFSET 0.101639 6.054260 1.275483
												}
											}
										}
									}
								}
								JOINT mixamorig:LeftHandIndex1
								{
									OFFSET 23.101074 -0.309540 4.992809
									CHANNELS 3 Xrotation Yrotation Zrotation
									JOINT mixamorig:LeftHandIndex2
									{
										OFFSET 6.226883 0.000000 0.000000
										CHANNELS 3 Xrotation Yrotation Zrotation
										JOINT mixamorig:LeftHandIndex3
										{
											OFFSET 6.094330 0.000000 0.000000
											CHANNELS 3 Xrotation Yrotation Zrotation
											JOINT mixamorig:LeftHandIndex4
											{
												OFFSET 5.482605 0.000000 0.000000
												CHANNELS 3 Xrotation Yrotation Zrotation
												End Site
												{
													OFFSET -1.427902 5.233032 0.797164
												}
											}
										}
									}
								}
								JOINT mixamorig:LeftHandRing1
								{
									OFFSET 22.299240 0.021149 -3.964172
									CHANNELS 3 Xrotation Yrotation Zrotation
									JOINT mixamorig:LeftHandRing2
									{
										OFFSET 6.321869 0.000000 0.000000
										CHANNELS 3 Xrotation Yrotation Zrotation
										JOINT mixamorig:LeftHandRing3
										{
											OFFSET 5.899796 0.000000 0.000000
											CHANNELS 3 Xrotation Yrotation Zrotation
											JOINT mixamorig:LeftHandRing4
											{
												OFFSET 6.517899 0.000000 0.000000
												CHANNELS 3 Xrotation Yrotation Zrotation
												End Site
												{
													OFFSET -1.637299 6.232208 0.980890
												}
											}
										}
									}
								}
								JOINT mixamorig:LeftHandPinky1
								{
									OFFSET 20.463791 -0.302338 -8.562233
									CHANNELS 3 Xrotation Yrotation Zrotation
									JOINT mixamorig:LeftHandPinky2
									{
										OFFSET 6.908646 0.000000 0.000000
										CHANNELS 3 Xrotation Yrotation Zrotation
										JOINT mixamorig:LeftHandPinky3
										{
											OFFSET 4.622849 0.000000 0.000000
											CHANNELS 3 Xrotation Yrotation Zrotation
											JOINT mixamorig:LeftHandPinky4
											{
												OFFSET 5.216080 0.000000 0.000000
												CHANNELS 3 Xrotation Yrotation Zrotation
												End Site
												{
													OFFSET -0.606308 5.116241 0.814926
												}
											}
										}
									}
								}
							}
						}
					}
				}
				JOINT mixamorig:RightShoulder
				{
					OFFSET -12.001300 18.284088 1.348900
					CHANNELS 3 Xrotation Yrotation Zrotation
					JOINT mixamorig:RightArm
					{
						OFFSET -25.308500 -0.751312 -5.164599
						CHANNELS 3 Xrotation Yrotation Zrotation
						JOINT mixamorig:RightForeArm
						{
							OFFSET -54.684429 0.000000 0.000000
							CHANNELS 3 Xrotation Yrotation Zrotation
							JOINT mixamorig:RightHand
							{
								OFFSET -55.150291 0.000000 0.000000
								CHANNELS 3 Xrotation Yrotation Zrotation
								JOINT mixamorig:RightHandMiddle1
								{
									OFFSET -23.317566 0.000000 0.000000
									CHANNELS 3 Xrotation Yrotation Zrotation
									JOINT mixamorig:RightHandMiddle2
									{
										OFFSET -6.378403 0.000000 0.000000
										CHANNELS 3 Xrotation Yrotation Zrotation
										JOINT mixamorig:RightHandMiddle3
										{
											OFFSET -6.148193 0.000000 0.000000
											CHANNELS 3 Xrotation Yrotation Zrotation
											JOINT mixamorig:RightHandMiddle4
											{
												OFFSET -6.583389 0.000000 0.000000
												CHANNELS 3 Xrotation Yrotation Zrotation
												End Site
												{
													OFFSET 1.171692 6.395905 1.029786
												}
											}
										}
									}
								}
								JOINT mixamorig:RightHandThumb1
								{
									OFFSET -7.190521 -3.860474 5.435846
									CHANNELS 3 Xrotation Yrotation Zrotation
									JOINT mixamorig:RightHandThumb2
									{
										OFFSET -6.567429 -3.791718 3.791708
										CHANNELS 3 Xrotation Yrotation Zrotation
										JOINT mixamorig:RightHandThumb3
										{
											OFFSET -6.062469 -3.500153 3.500166
											CHANNELS 3 Xrotation Yrotation Zrotation
											JOINT mixamorig:RightHandThumb4
											{
												OFFSET -4.792618 -2.767029 2.767022
												CHANNELS 3 Xrotation Yrotation Zrotation
												End Site
												{
													OFFSET -0.100327 6.053253 1.276754
												}
											}
										}
									}
								}
								JOINT mixamorig:RightHandIndex1
								{
									OFFSET -23.048981 -0.310791 4.992554
									CHANNELS 3 Xrotation Yrotation Zrotation
									JOINT mixamorig:RightHandIndex2
									{
										OFFSET -6.227539 0.000000 0.000000
										CHANNELS 3 Xrotation Yrotation Zrotation
										JOINT mixamorig:RightHandIndex3
										{
											OFFSET -6.095047 0.000000 0.000000
											CHANNELS 3 Xrotation Yrotation Zrotation
											JOINT mixamorig:RightHandIndex4
											{
												OFFSET -5.484772 0.000000 0.000000
												CHANNELS 3 Xrotation Yrotation Zrotation
												End Site
												{
													OFFSET 1.420593 5.237305 0.797056
												}
											}
										}
									}
								}
								JOINT mixamorig:RightHandRing1
								{
									OFFSET -22.246323 0.020569 -3.963762
									CHANNELS 3 Xrotation Yrotation Zrotation
									JOINT mixamorig:RightHandRing2
									{
										OFFSET -6.322128 0.000000 0.000000
										CHANNELS 3 Xrotation Yrotation Zrotation
										JOINT mixamorig:RightHandRing3
										{
											OFFSET -5.900024 0.000000 0.000000
											CHANNELS 3 Xrotation Yrotation Zrotation
											JOINT mixamorig:RightHandRing4
											{
												OFFSET -6.518356 0.000000 0.000000
												CHANNELS 3 Xrotation Yrotation Zrotation
												End Site
												{
													OFFSET 1.636398 6.232697 0.982186
												}
											}
										}
									}
								}
								JOINT mixamorig:RightHandPinky1
								{
									OFFSET -20.411011 -0.303314 -8.561701
									CHANNELS 3 Xrotation Yrotation Zrotation
									JOINT mixamorig:RightHandPinky2
									{
										OFFSET -6.907349 0.000000 0.000000
										CHANNELS 3 Xrotation Yrotation Zrotation
										JOINT mixamorig:RightHandPinky3
										{
											OFFSET -4.623840 0.000000 0.000000
											CHANNELS 3 Xrotation Yrotation Zrotation
											JOINT mixamorig:RightHandPinky4
											{
												OFFSET -5.218353 0.000000 0.000000
												CHANNELS 3 Xrotation Yrotation Zrotation
												End Site
												{
													OFFSET 0.602097 5.118835 0.816273
												}
											}
										}
									}
								}
							}
						}
					}
				}
			}
		}
	}
	JOINT mixamorig:LeftUpLeg
	{
		OFFSET 18.168400 -13.561905 -0.039000
		CHANNELS 3 Xrotation Yrotation Zrotation
		JOINT mixamorig:LeftLeg
		{
			OFFSET 0.577358 -80.825211 -3.695000
			CHANNELS 3 Xrotation Yrotation Zrotation
			JOINT mixamorig:LeftFoot
			{
				OFFSET -0.577356 -83.370262 -6.520700
				CHANNELS 3 Xrotation Yrotation Zrotation
				JOINT mixamorig:LeftToeBase
				{
					OFFSET 0.750401 -20.798306 25.135401
					CHANNELS 3 Xrotation Yrotation Zrotation
					JOINT mixamorig:LeftToe_End
					{
						OFFSET -0.000500 0.001200 19.917799
						CHANNELS 3 Xrotation Yrotation Zrotation
						End Site
						{
							OFFSET 0.000000 19.917805 0.000000
						}
					}
				}
			}
		}
	}
	JOINT mixamorig:RightUpLeg
	{
		OFFSET -18.162500 -13.585098 -0.041000
		CHANNELS 3 Xrotation Yrotation Zrotation
		JOINT mixamorig:RightLeg
		{
			OFFSET -0.595024 -80.945297 -3.631900
			CHANNELS 3 Xrotation Yrotation Zrotation
			JOINT mixamorig:RightFoot
			{
				OFFSET 0.595024 -83.218193 -6.561200
				CHANNELS 3 Xrotation Yrotation Zrotation
				JOINT mixamorig:RightToeBase
				{
					OFFSET -0.753601 -20.807106 25.115000
					CHANNELS 3 Xrotation Yrotation Zrotation
					JOINT mixamorig:RightToe_End
					{
						OFFSET 0.000299 0.001700 19.918200
						CHANNELS 3 Xrotation Yrotation Zrotation
						End Site
						{
							OFFSET 0.000000 19.918203 0.000000
						}
					}
				}
			}
		}
	}
}
MOTION
Frames: 4
Frame Time: 0.033333
0.077614 197.218872 0.007614 -0.643775 2.396770 -0.121155 7.279561 2.967589 0.167455 0.458890 0.804121 -0.441287 0.454489 0.818804 -0.449565 2.271251 -1.479194 -0.186967 11.515045 -9.195262 -19.660664 0.000001 -0.000000 -0.000001 0.000001 -0.000000 -0.000001 0.000001 -0.000000 -0.000001 0.489997 -5.818052 -13.768615 -2.403983 0.489420 -65.659865 28.930315 -36.448058 18.535788 -3.741125 23.692630 -6.775079 1.631723 6.223233 -39.219424 1.031587 3.321686 -34.497363 1.150169 3.487677 -36.493984 0.000001 -0.000001 0.000000 10.974966 1.857685 5.093316 18.774009 9.462398 3.183619 2.033362 -7.150634 22.259325 0.000001 -0.000001 -0.000003 0.794817 5.584325 -43.722937 0.858049 3.054227 -31.377418 0.858046 3.054215 -31.377462 -0.000000 0.000001 -0.000000 6.138853 10.874387 -41.179559 0.716361 2.809080 -28.607747 0.817225 2.986324 -30.602454 -0.000000 0.000002 -0.000002 8.290120 15.643409 -36.249446 0.823937 2.997663 -30.731299 0.823929 2.997667 -30.731282 0.000002 0.000001 0.000002 0.507178 4.971933 15.283769 23.683182 42.223437 53.602102 -16.810371 37.023218 -13.105809 -3.831707 -17.678533 2.503318 1.706224 -5.799469 45.950350 0.704154 -2.464242 31.889901 0.792398 -2.600587 33.887195 0.000000 0.000002 -0.000001 4.293638 -5.650662 -2.100559 15.418298 -15.696367 -10.403735 -13.946679 -9.337916 -8.536804 0.000002 0.000000 0.000001 0.689042 -4.894103 47.715387 0.894669 -2.746542 36.079221 0.894677 -2.746573 36.079252 0.000002 0.000002 -0.000000 6.096470 -10.394648 46.902021 0.840257 -2.670372 34.927613 0.935648 -2.801857 36.925580 0.000001 -0.000001 -0.000000 8.123970 -15.172871 39.980478 0.842915 -2.674173 34.984779 0.842920 -2.674181 34.984765 -0.000001 0.000003 0.000001 -9.117975 -1.026641 10.895924 13.202382 0.894078 1.871831 -2.885943 1.015924 -12.682936 -0.000018 -0.761586 0.000001 -0.000000 0.000000 -0.000000 -6.051410 -7.877980 -12.328997 7.662054 4.367606 -2.415025 -1.563735 -0.855411 13.791205 -0.687154 -6.261041 1.082160 -0.000000 0.000000 0.000000 
0.084770 197.208069 0.034871 -0.624215 2.385094 -0.130514 7.258144 2.977402 0.156920 0.455666 0.806745 -0.438651 0.451003 0.820913 -0.445995 2.270985 -1.477687 -0.188432 11.539760 -9.165021 -19.664512 -0.000001 0.000000 -0.000001 -0.000001 0.000000 -0.000001 -0.000001 0.000000 -0.000001 0.492554 -5.806643 -13.773400 -2.307671 0.486253 -65.674974 28.961413 -36.506350 18.580864 -3.727832 23.782992 -6.790255 1.631778 6.223091 -39.247910 1.031710 3.321857 -34.499381 1.150291 3.487839 -36.496006 0.000001 -0.000000 0.000000 11.002430 1.881664 5.089396 18.779574 9.454914 3.188823 2.027945 -7.152156 22.272699 0.000000 0.000003 -0.000002 0.795429 5.584527 -43.708733 0.858020 3.054181 -31.376926 0.858016 3.054171 -31.376950 -0.000001 0.000001 -0.000000 6.138659 10.871083 -41.186099 0.715649 2.807762 -28.593052 0.816459 2.985034 -30.587769 -0.000002 -0.000001 -0.000000 8.287470 15.649852 -36.219827 0.823748 2.997342 -30.727676 0.823743 2.997353 -30.727655 -0.000002 0.000001 0.000000 0.507939 5.001430 15.266900 23.612662 42.063904 53.730499 -16.712527 37.080981 -13.142914 -3.826315 -17.728842 2.523209 1.706804 -5.797818 45.978863 0.704241 -2.464379 31.891912 0.792495 -2.600732 33.889227 0.000000 0.000001 0.000001 4.320738 -5.675265 -2.098688 15.423564 -15.688197 -10.402180 -13.951461 -9.334491 -8.550532 0.000002 0.000002 -0.000002 0.689889 -4.894479 47.701249 0.894652 -2.746522 36.078692 0.894655 -2.746535 36.078746 0.000001 0.000003 -0.000003 6.094971 -10.392298 46.908220 0.839562 -2.669394 34.912871 0.934925 -2.800889 36.910858 -0.000000 0.000003 -0.000001 8.121745 -15.179718 39.951119 0.842750 -2.673946 34.981162 0.842749 -2.673932 34.981135 -0.000001 0.000001 0.000001 -9.139636 -1.085351 10.902959 13.253740 0.971218 1.872102 -2.918690 1.021176 -12.696595 -0.000061 -0.656409 0.000003 -0.000000 -0.000000 0.000000 -6.071613 -7.725647 -12.306211 7.737265 4.242302 -2.411571 -1.607271 -0.867394 13.789448 -0.787833 -6.392656 1.239075 -0.000000 0.000000 0.000000 
0.081277 197.199203 0.060545 -0.602728 2.375244 -0.137074 7.244032 2.988698 0.144658 0.452900 0.809890 -0.437009 0.447788 0.823485 -0.443655 2.270143 -1.476336 -0.190741 11.543360 -9.144304 -19.660544 -0.000003 0.000000 0.000000 -0.000003 0.000000 0.000000 -0.000003 0.000000 0.000000 0.497330 -5.784838 -13.767068 -2.207331 0.487575 -65.692739 28.997684 -36.566664 18.630471 -3.713812 23.889140 -6.800406 1.632207 6.223575 -39.251103 1.031905 3.322149 -34.502752 1.150506 3.488120 -36.499401 -0.000000 -0.000000 0.000001 11.020263 1.892015 5.083136 18.788213 9.443436 3.194874 2.024297 -7.153506 22.284213 0.000001 0.000004 0.000005 0.797134 5.586753 -43.723630 0.858085 3.054288 -31.378176 0.858086 3.054282 -31.378179 0.000000 -0.000002 -0.000002 6.138780 10.868629 -41.191382 0.715515 2.807524 -28.590468 0.816316 2.984789 -30.585170 0.000001 0.000001 -0.000002 8.291685 15.650117 -36.234423 0.823668 2.997209 -30.726265 0.823670 2.997242 -30.726251 0.000000 0.000002 0.000002 0.507083 5.026717 15.269282 23.542282 41.887279 53.829503 -16.583351 37.145775 -13.153581 -3.819645 -17.768143 2.557800 1.708207 -5.797215 45.982124 0.704380 -2.464613 31.895307 0.792653 -2.600970 33.892601 0.000001 0.000001 -0.000001 4.338796 -5.686075 -2.098761 15.432001 -15.675858 -10.400463 -13.955086 -9.331973 -8.560618 -0.000001 -0.000001 -0.000002 0.691501 -4.896369 47.716152 0.894707 -2.746605 36.079938 0.894721 -2.746630 36.079972 -0.000000 -0.000001 -0.000001 6.094018 -10.390635 46.913212 0.839442 -2.669220 34.910306 0.934802 -2.800732 36.908269 -0.000000 0.000003 0.000001 8.125751 -15.179797 39.965622 0.842691 -2.673858 34.979738 0.842687 -2.673833 34.979741 -0.000001 -0.000001 0.000000 -9.167201 -1.128811 10.904531 13.299414 0.998826 1.874532 -2.952453 1.022504 -12.704416 0.000002 -0.564464 -0.000002 -0.000000 -0.000000 0.000000 -6.083463 -7.543882 -12.282190 7.806039 4.078153 -2.407817 -1.647194 -0.878702 13.789582 -0.854542 -6.469136 1.343418 0.000000 -0.000001 0.000000 
0.060423 197.181747 0.086442 -0.592964 2.367342 -0.136906 7.251879 3.002995 0.121985 0.450721 0.814379 -0.436475 0.445089 0.827372 -0.442450 2.268998 -1.475122 -0.193999 11.525850 -9.135333 -19.655126 0.000001 0.000000 -0.000000 0.000001 0.000000 -0.000000 0.000001 0.000000 -0.000000 0.502729 -5.752607 -13.750845 -2.082413 0.506777 -65.701816 29.028133 -36.667177 18.692119 -3.709743 23.996145 -6.763369 1.637889 6.230593 -39.237944 1.032142 3.322489 -34.506847 1.150750 3.488461 -36.503492 -0.000001 -0.000000 0.000000 11.045112 1.866087 5.064625 18.782718 9.447359 3.199869 2.022200 -7.153030 22.272648 -0.000004 -0.000003 -0.000002 0.799470 5.590291 -43.759779 0.858276 3.054604 -31.381779 0.858279 3.054594 -31.381793 -0.000001 0.000003 -0.000000 6.140733 10.866549 -41.207819 0.716143 2.808673 -28.603260 0.816985 2.985924 -30.597943 -0.000001 -0.000001 0.000001 8.309071 15.652791 -36.292852 0.823582 2.997062 -30.724452 0.823579 2.997070 -30.724438 -0.000001 -0.000000 0.000001 0.504520 5.039217 15.295420 23.548441 41.770483 53.845124 -16.489014 37.218155 -13.155049 -3.809183 -17.795575 2.612303 1.715993 -5.802980 45.969335 0.704568 -2.464899 31.899381 0.792835 -2.601244 33.896706 0.000001 0.000002 0.000000 4.364981 -5.661944 -2.093126 15.427613 -15.679155 -10.400654 -13.953568 -9.335768 -8.551885 -0.000002 0.000001 -0.000000 0.693466 -4.899181 47.752332 0.894885 -2.746848 36.083555 0.894881 -2.746854 36.083575 0.000002 0.000000 0.000001 6.094942 -10.388987 46.929448 0.840047 -2.670079 34.923106 0.935427 -2.801551 36.921076 -0.000002 -0.000001 -0.000003 8.142911 -15.181303 40.023997 0.842596 -2.673720 34.977921 0.842591 -2.673711 34.977911 -0.000002 -0.000002 -0.000000 -9.209139 -1.138762 10.901658 13.381631 0.964174 1.879042 -3.008420 1.024937 -12.706837 -0.000078 -0.508970 0.000003 -0.000000 0.000000 0.000000 -6.089662 -7.223635 -12.257576 7.949706 3.771699 -2.397889 -1.726829 -0.890400 13.792285 -0.855925 -6.466023 1.345465 -0.000000 -0.000001 -0.000000 
